<svg width="329" height="452" viewBox="0 0 329 452" fill="none" xmlns="http://www.w3.org/2000/svg">
<path fill-rule="evenodd" clip-rule="evenodd" d="M166.5 77.4937C188.936 77.521 205.211 90.0744 215.324 115.154C225.65 140.058 230.813 177.01 230.813 226.009C230.813 275.007 225.549 312.06 215.02 337.167C204.694 362.274 188.091 374.827 165.211 374.827C141.927 374.827 124.919 362.679 114.188 338.382C103.659 314.085 98.3949 278.146 98.3949 230.564C98.3949 180.148 103.76 142.083 114.492 116.369C125.159 90.6065 142.328 77.6487 166 77.4951L166 1.00472C112.035 2.08092 71.1756 21.908 43.4232 60.4858C14.8743 99.9683 0.599854 157.471 0.599854 232.994C0.599854 305.682 13.7607 360.249 40.0823 396.694C66.6065 433.14 107.304 451.362 162.174 451.362C202.467 451.362 234.761 441.34 259.058 421.295C283.558 401.25 301.274 374.017 312.208 339.597C323.141 304.974 328.608 266.098 328.608 222.971C328.608 149.068 315.65 93.5904 289.733 56.5376C264.019 19.4848 224.334 0.958397 170.678 0.958397C169.277 0.958397 167.884 0.970697 166.5 0.995297L166.5 77.4937Z" fill="black"/>
</svg>
