<svg width="276" height="380" viewBox="0 0 276 380" fill="none" xmlns="http://www.w3.org/2000/svg">
<path d="M135.956 380C89.7852 380 55.5407 364.626 33.2222 333.877C11.0741 303.129 0 257.091 0 195.765C0 132.048 12.0111 83.5334 36.0333 50.2225C60.0556 16.7408 95.7482 0 143.111 0C188.259 0 221.652 15.6305 243.289 46.8914C265.096 78.1524 276 124.958 276 187.31C276 223.695 271.4 256.494 262.2 285.705C253 314.745 238.093 337.721 217.478 354.633C197.033 371.544 169.859 380 135.956 380ZM138.511 315.428C157.763 315.428 171.733 304.837 180.422 283.655C189.281 262.472 193.711 231.212 193.711 189.872C193.711 148.532 189.367 117.357 180.678 96.3452C172.159 75.163 158.444 64.5718 139.533 64.5718C119.43 64.5718 104.863 75.5046 95.8333 97.3702C86.8037 119.065 82.2889 151.18 82.2889 193.715C82.2889 233.859 86.7185 264.181 95.5778 284.68C104.607 305.179 118.919 315.428 138.511 315.428Z" fill="black"/>
</svg>
