<svg width="329" height="452" viewBox="0 0 329 452" fill="none" xmlns="http://www.w3.org/2000/svg">
<path d="M162.174 451.362C107.304 451.362 66.6065 433.14 40.0823 396.694C13.7607 360.249 0.599854 305.682 0.599854 232.994C0.599854 157.471 14.8743 99.9683 43.4232 60.4858C71.972 20.8008 114.39 0.958366 170.678 0.958366C224.334 0.958366 264.019 19.4848 289.733 56.5376C315.65 93.5904 328.608 149.068 328.608 222.971C328.608 266.098 323.141 304.974 312.208 339.597C301.274 374.017 283.558 401.25 259.058 421.295C234.761 441.34 202.467 451.362 162.174 451.362ZM165.211 374.827C188.091 374.827 204.694 362.274 215.02 337.167C225.549 312.06 230.813 275.007 230.813 226.009C230.813 177.01 225.65 140.058 215.324 115.154C205.2 90.0471 188.901 77.4937 166.426 77.4937C142.534 77.4937 125.223 90.452 114.492 116.369C103.76 142.083 98.3949 180.148 98.3949 230.564C98.3949 278.146 103.659 314.085 114.188 338.382C124.919 362.679 141.927 374.827 165.211 374.827Z" fill="black"/>
</svg>
