<svg width="201" height="446" viewBox="0 0 201 446" fill="none" xmlns="http://www.w3.org/2000/svg">
<path d="M200.146 429.673C200.146 435.747 198.83 439.999 196.198 442.429C193.768 444.656 189.516 445.77 183.442 445.77H120.877C114.803 445.77 110.45 444.656 107.818 442.429C105.388 439.999 104.173 435.747 104.173 429.673V111.687L61.9571 132.947C57.9076 135.174 54.2631 136.085 51.0235 135.68C44.7468 134.668 37.8627 133.048 30.3711 130.821C23.0821 128.594 14.9831 125.557 6.07423 121.71C3.03711 119.887 1.21485 118.267 0.607423 116.85C-0.202474 115.433 -0.202474 113.104 0.607423 109.865C5.26433 92.0471 10.8324 77.4689 17.3116 66.1303C19.3363 63.2957 22.2722 60.9673 26.1192 59.145L142.137 0.528679H200.146V429.673Z" fill="black"/>
</svg>
