<svg width="169" height="376" viewBox="0 0 169 376" fill="none" xmlns="http://www.w3.org/2000/svg">
<path d="M169 362.407C169 367.536 167.889 371.127 165.666 373.179C163.615 375.06 160.024 376 154.895 376H102.067C96.9378 376 93.262 375.06 91.0395 373.179C88.9879 371.127 87.9621 367.536 87.9621 362.407V93.8718L52.3156 111.825C48.8963 113.706 45.8189 114.476 43.0835 114.134C37.7835 113.279 31.9707 111.911 25.6449 110.03C19.4901 108.149 12.6515 105.584 5.12898 102.336C2.56449 100.797 1.0258 99.4288 0.512898 98.2319C-0.170966 97.035 -0.170966 95.0687 0.512898 92.3329C4.44512 77.286 9.14669 64.975 14.6176 55.3997C16.3273 53.0059 18.8063 51.0396 22.0546 49.5007L120.018 0H169V362.407Z" fill="black"/>
</svg>
