<svg width="13" height="15" viewBox="0 0 13 15" fill="none" xmlns="http://www.w3.org/2000/svg">
<path id="10" d="M1.764 12V4.32L2.604 5.16H0.084V3.6H3.708V12H1.764ZM8.76722 12.144C8.07922 12.144 7.46322 11.976 6.91922 11.64C6.37522 11.296 5.94722 10.8 5.63522 10.152C5.32322 9.504 5.16722 8.72 5.16722 7.8C5.16722 6.88 5.32322 6.096 5.63522 5.448C5.94722 4.8 6.37522 4.308 6.91922 3.972C7.46322 3.628 8.07922 3.456 8.76722 3.456C9.46322 3.456 10.0792 3.628 10.6152 3.972C11.1592 4.308 11.5872 4.8 11.8992 5.448C12.2112 6.096 12.3672 6.88 12.3672 7.8C12.3672 8.72 12.2112 9.504 11.8992 10.152C11.5872 10.8 11.1592 11.296 10.6152 11.64C10.0792 11.976 9.46322 12.144 8.76722 12.144ZM8.76722 10.5C9.09522 10.5 9.37922 10.408 9.61922 10.224C9.86722 10.04 10.0592 9.748 10.1952 9.348C10.3392 8.948 10.4112 8.432 10.4112 7.8C10.4112 7.168 10.3392 6.652 10.1952 6.252C10.0592 5.852 9.86722 5.56 9.61922 5.376C9.37922 5.192 9.09522 5.1 8.76722 5.1C8.44722 5.1 8.16322 5.192 7.91522 5.376C7.67522 5.56 7.48322 5.852 7.33922 6.252C7.20322 6.652 7.13522 7.168 7.13522 7.8C7.13522 8.432 7.20322 8.948 7.33922 9.348C7.48322 9.748 7.67522 10.04 7.91522 10.224C8.16322 10.408 8.44722 10.5 8.76722 10.5Z" fill="white"/>
</svg>
