<svg width="12" height="15" viewBox="0 0 12 15" fill="none" xmlns="http://www.w3.org/2000/svg">
<path id="12" d="M1.764 12V4.32L2.604 5.16H0.084V3.6H3.708V12H1.764ZM5.09522 12V10.74L8.33522 7.68C8.59122 7.448 8.77922 7.24 8.89922 7.056C9.01922 6.872 9.09922 6.704 9.13922 6.552C9.18722 6.4 9.21122 6.26 9.21122 6.132C9.21122 5.796 9.09522 5.54 8.86322 5.364C8.63922 5.18 8.30722 5.088 7.86722 5.088C7.51522 5.088 7.18722 5.156 6.88322 5.292C6.58722 5.428 6.33522 5.64 6.12722 5.928L4.71122 5.016C5.03122 4.536 5.47922 4.156 6.05522 3.876C6.63122 3.596 7.29522 3.456 8.04722 3.456C8.67122 3.456 9.21522 3.56 9.67922 3.768C10.1512 3.968 10.5152 4.252 10.7712 4.62C11.0352 4.988 11.1672 5.428 11.1672 5.94C11.1672 6.212 11.1312 6.484 11.0592 6.756C10.9952 7.02 10.8592 7.3 10.6512 7.596C10.4512 7.892 10.1552 8.224 9.76322 8.592L7.07522 11.124L6.70322 10.416H11.4432V12H5.09522Z" fill="white"/>
</svg>
