<svg width="262" height="374" viewBox="0 0 262 374" fill="none" xmlns="http://www.w3.org/2000/svg">
<path d="M0 352.196V346.296C0 327.485 3.07331 310.555 9.21994 295.506C15.3666 280.286 23.306 266.691 33.0381 254.72C42.941 242.578 53.5269 231.89 64.7957 222.656C76.0645 213.25 86.8211 204.871 97.0655 197.517C118.579 182.126 134.799 168.103 145.726 155.449C156.824 142.623 162.373 128.258 162.373 112.354C162.373 80.5459 144.958 64.642 110.127 64.642C96.2972 64.642 84.0893 66.8651 73.5034 71.3114C62.9176 75.7577 54.3806 80.2039 47.8925 84.6502C44.1362 87.2154 41.1483 88.3269 38.9286 87.9849C36.709 87.6429 34.404 85.3342 32.0137 81.059L10.2444 42.8381C7.17107 37.5368 8.11013 33.176 13.0616 29.7558C22.623 23.2574 36.4529 16.6735 54.5513 10.0041C72.8205 3.3347 96.5533 0 125.75 0C163.142 0 192.338 9.40558 213.339 28.2167C234.34 47.0279 244.841 72.423 244.841 104.402C244.841 126.804 240.401 146.128 231.523 162.374C222.645 178.62 211.12 192.985 196.948 205.469C182.777 217.953 167.581 229.838 151.361 241.125C134.799 252.583 120.201 263.955 107.566 275.241C94.9312 286.528 88.6139 297.045 88.6139 306.793H221.279C225.376 306.793 228.45 307.477 230.499 308.845C234.938 311.923 239.548 315.6 244.328 319.875C249.109 324.15 254.146 329.281 259.439 335.266C261.146 337.489 262 339.199 262 340.396C262 341.936 261.146 343.646 259.439 345.527C254.146 351.512 249.109 356.642 244.328 360.918C239.548 365.193 234.938 368.87 230.499 371.948C228.108 373.316 225.035 374 221.279 374H18.9521C11.6103 374 6.57348 372.119 3.84164 368.357C1.28055 364.423 0 359.037 0 352.196Z" fill="black"/>
</svg>
