<svg width="311" height="444" viewBox="0 0 311 444" fill="none" xmlns="http://www.w3.org/2000/svg">
<path d="M0.259277 417.954V410.969C0.259277 388.697 3.90381 368.652 11.1929 350.834C18.482 332.814 27.897 316.717 39.4381 302.544C51.1816 288.168 63.735 275.514 77.0983 264.58C90.4616 253.444 103.217 243.523 115.366 234.816C140.878 216.593 160.113 199.991 173.071 185.007C186.232 169.822 192.812 152.814 192.812 133.984C192.812 96.3238 172.16 77.4937 130.855 77.4937C114.455 77.4937 99.9779 80.1258 87.4245 85.3901C74.8711 90.6545 64.7473 95.9188 57.0533 101.183C52.5989 104.22 49.0556 105.536 46.4234 105.131C43.7913 104.726 41.0578 101.993 38.2232 96.9312L12.4077 51.6782C8.7632 45.4015 9.87681 40.2384 15.7486 36.1889C27.0871 28.4949 43.4875 20.6996 64.9498 12.8031C86.6146 4.90662 114.758 0.958366 149.382 0.958366C193.723 0.958366 228.347 12.0945 253.251 34.3666C278.155 56.6388 290.607 86.7062 290.607 124.569C290.607 151.093 285.343 173.973 274.814 193.208C264.286 212.443 250.619 229.451 233.813 244.231C217.008 259.012 198.988 273.084 179.753 286.447C160.113 300.013 142.801 313.477 127.818 326.841C112.835 340.204 105.343 352.656 105.343 364.197H262.666C267.525 364.197 271.17 365.007 273.6 366.627C278.864 370.271 284.331 374.625 290 379.687C295.669 384.748 301.642 390.823 307.919 397.909C309.944 400.541 310.956 402.566 310.956 403.983C310.956 405.806 309.944 407.83 307.919 410.058C301.642 417.144 295.669 423.218 290 428.28C284.331 433.342 278.864 437.695 273.6 441.34C270.765 442.96 267.12 443.77 262.666 443.77H22.7339C14.0275 443.77 8.05454 441.542 4.81495 437.088C1.77783 432.431 0.259277 426.053 0.259277 417.954Z" fill="black"/>
</svg>
