<svg width="7" height="15" viewBox="0 0 7 15" fill="none" xmlns="http://www.w3.org/2000/svg">
<path id="2" d="M0.396 12V10.74L3.636 7.68C3.892 7.448 4.08 7.24 4.2 7.056C4.32 6.872 4.4 6.704 4.44 6.552C4.488 6.4 4.512 6.26 4.512 6.132C4.512 5.796 4.396 5.54 4.164 5.364C3.94 5.18 3.608 5.088 3.168 5.088C2.816 5.088 2.488 5.156 2.184 5.292C1.888 5.428 1.636 5.64 1.428 5.928L0.012 5.016C0.332 4.536 0.78 4.156 1.356 3.876C1.932 3.596 2.596 3.456 3.348 3.456C3.972 3.456 4.516 3.56 4.98 3.768C5.452 3.968 5.816 4.252 6.072 4.62C6.336 4.988 6.468 5.428 6.468 5.94C6.468 6.212 6.432 6.484 6.36 6.756C6.296 7.02 6.16 7.3 5.952 7.596C5.752 7.892 5.456 8.224 5.064 8.592L2.376 11.124L2.004 10.416H6.744V12H0.396Z" fill="white"/>
</svg>
