<svg width="248" height="380" viewBox="0 0 248 380" fill="none" xmlns="http://www.w3.org/2000/svg">
<path d="M106.322 380C78.4821 380 56.5344 377.694 40.4793 373.082C24.4242 368.298 12.6391 363.857 5.12397 359.757C0 357.195 -1.28099 353.01 1.28099 347.202L18.9587 305.435C20.8375 300.993 22.8871 298.517 25.1074 298.004C27.3278 297.492 30.4022 298.175 34.3306 300.054C41.1625 303.3 50.3003 306.716 61.7438 310.303C73.3581 313.72 86.9366 315.428 102.479 315.428C121.78 315.428 137.066 311.414 148.339 303.385C159.782 295.356 165.504 283.399 165.504 267.512C165.504 251.113 158.331 238.728 143.983 230.357C129.807 221.816 110.251 217.546 85.314 217.546H79.4215C75.3223 217.546 72.2479 216.862 70.1983 215.496C65.7576 212.592 61.146 209.175 56.3636 205.246C51.7521 201.146 46.7135 196.192 41.2479 190.384C39.5399 188.164 38.686 186.455 38.686 185.26C38.686 183.722 39.5399 182.014 41.2479 180.135C46.7135 174.327 51.7521 169.458 56.3636 165.529C61.146 161.43 65.7576 157.928 70.1983 155.024C72.5895 153.657 75.6639 152.974 79.4215 152.974H82.7521C130.576 152.974 154.488 137.514 154.488 106.595C154.488 78.5795 137.152 64.5718 102.479 64.5718C90.5234 64.5718 79.5069 66.1092 69.4298 69.1841C59.3526 72.2589 51.2397 75.3338 45.0909 78.4086C41.1625 80.2877 38.0882 80.971 35.8678 80.4585C33.8182 79.7752 31.854 77.3837 29.9752 73.2839L12.8099 34.0796C10.4187 28.4423 11.6997 24.1717 16.6529 21.2677C24.168 17.3387 36.2094 12.8119 52.7769 7.68712C69.3444 2.56237 91.0358 0 117.851 0C140.226 0 160.38 3.4165 178.314 10.2495C196.248 17.0825 210.51 27.2466 221.099 40.7417C231.689 54.2369 236.983 71.0632 236.983 91.2205C236.983 139.222 212.645 169.287 163.967 181.416V182.697C188.904 185.943 209.143 195.082 224.686 210.115C240.229 225.147 248 244.621 248 268.537C248 293.136 241.851 313.72 229.554 330.29C217.427 346.86 200.689 359.33 179.339 367.701C157.989 375.9 133.65 380 106.322 380Z" fill="black"/>
</svg>
