<svg width="7" height="15" viewBox="0 0 7 15" fill="none" xmlns="http://www.w3.org/2000/svg">
<path id="3" d="M3.192 12.144C2.608 12.144 2.028 12.068 1.452 11.916C0.876 11.756 0.388 11.532 -0.012 11.244L0.744 9.756C1.064 9.988 1.436 10.172 1.86 10.308C2.284 10.444 2.712 10.512 3.144 10.512C3.632 10.512 4.016 10.416 4.296 10.224C4.576 10.032 4.716 9.768 4.716 9.432C4.716 9.112 4.592 8.86 4.344 8.676C4.096 8.492 3.696 8.4 3.144 8.4H2.256V7.116L4.596 4.464L4.812 5.16H0.408V3.6H6.288V4.86L3.96 7.512L2.976 6.948H3.54C4.572 6.948 5.352 7.18 5.88 7.644C6.408 8.108 6.672 8.704 6.672 9.432C6.672 9.904 6.548 10.348 6.3 10.764C6.052 11.172 5.672 11.504 5.16 11.76C4.648 12.016 3.992 12.144 3.192 12.144Z" fill="white"/>
</svg>
