<svg width="295" height="452" viewBox="0 0 295 452" fill="none" xmlns="http://www.w3.org/2000/svg">
<path d="M126.553 451.362C93.5497 451.362 67.5317 448.629 48.4992 443.162C29.4666 437.493 15.4959 432.229 6.58699 427.369C0.512756 424.332 -1.0058 419.372 2.03131 412.487L22.9874 362.982C25.2146 357.718 27.6443 354.782 30.2765 354.175C32.9086 353.567 36.5532 354.377 41.2101 356.604C49.3091 360.451 60.1414 364.501 73.7072 368.753C87.4755 372.802 103.572 374.827 121.997 374.827C144.877 374.827 162.998 370.069 176.362 360.553C189.927 351.036 196.71 336.863 196.71 318.033C196.71 298.596 188.206 283.916 171.199 273.995C154.393 263.871 131.21 258.809 101.649 258.809H94.6633C89.8039 258.809 86.1594 257.999 83.7297 256.38C78.4654 252.938 72.9986 248.888 67.3293 244.231C61.8625 239.372 55.8895 233.5 49.4103 226.616C47.3856 223.984 46.3732 221.959 46.3732 220.542C46.3732 218.719 47.3856 216.695 49.4103 214.468C55.8895 207.583 61.8625 201.813 67.3293 197.156C72.9986 192.297 78.4654 188.146 83.7297 184.704C86.5643 183.084 90.2089 182.274 94.6633 182.274H98.6115C155.304 182.274 183.651 163.95 183.651 127.302C183.651 94.0965 163.1 77.4937 121.997 77.4937C107.824 77.4937 94.7645 79.3159 82.8186 82.9605C70.8726 86.605 61.255 90.2495 53.966 93.8941C49.3091 96.1213 45.6645 96.9312 43.0324 96.3238C40.6027 95.5139 38.2742 92.6792 36.047 87.8198L15.6983 41.352C12.8637 34.6703 14.3822 29.6085 20.254 26.1664C29.1629 21.5095 43.4373 16.1439 63.0773 10.0697C82.7173 3.99548 108.432 0.958366 140.22 0.958366C166.744 0.958366 190.636 5.00785 211.896 13.1068C233.156 21.2058 250.062 33.253 262.616 49.2485C275.169 65.244 281.446 85.1877 281.446 109.08C281.446 165.975 252.593 201.61 194.888 215.986V217.505C224.449 221.352 248.443 232.184 266.868 250.002C285.293 267.819 294.505 290.902 294.505 319.248C294.505 348.404 287.216 372.802 272.638 392.442C258.263 412.082 238.42 426.863 213.111 436.784C187.801 446.503 158.949 451.362 126.553 451.362Z" fill="black"/>
</svg>
