<svg width="345" height="436" viewBox="0 0 345 436" fill="none" xmlns="http://www.w3.org/2000/svg">
<path fill-rule="evenodd" clip-rule="evenodd" d="M274.195 432.429C276.625 429.999 277.84 425.747 277.84 419.673V346.478H296.67C301.125 346.478 304.769 345.77 307.604 344.353C312.868 340.91 318.335 336.962 324.004 332.508C329.673 328.053 335.646 322.587 341.923 316.107C343.948 314.083 344.96 312.26 344.96 310.641C344.96 309.223 343.948 307.401 341.923 305.174C335.646 298.695 329.673 293.228 324.004 288.773C318.335 284.116 312.868 280.168 307.604 276.929C305.174 275.511 301.529 274.803 296.67 274.803H277.84V237H190.371V274.803H86.5018L190.371 122.643V236H277.84V31.226C277.84 19.28 275.613 11.1811 271.158 6.9291C266.906 2.47466 259.314 0.247444 248.38 0.247444H211.023C202.317 0.247444 195.332 1.766 190.067 4.80312C185.006 7.84023 179.134 14.2182 172.452 23.9369L16.3444 248.683C10.0677 257.795 5.81578 265.286 3.58857 271.158C1.56382 276.827 0.551453 284.42 0.551453 293.936V314.892C0.551453 327.648 2.67743 336.152 6.92939 340.404C11.3838 344.454 19.6853 346.478 31.8337 346.478H190.371V419.673C190.371 425.747 191.485 429.999 193.712 432.429C196.142 434.656 200.09 435.77 205.557 435.77H262.654C268.121 435.77 271.968 434.656 274.195 432.429Z" fill="black"/>
</svg>
