<svg width="345" height="436" viewBox="0 0 345 436" fill="none" xmlns="http://www.w3.org/2000/svg">
<path d="M277.84 419.673C277.84 425.747 276.625 429.999 274.195 432.429C271.968 434.656 268.121 435.77 262.654 435.77H205.557C200.09 435.77 196.142 434.656 193.712 432.429C191.485 429.999 190.371 425.747 190.371 419.673V346.478H31.8337C19.6853 346.478 11.3838 344.454 6.92939 340.404C2.67743 336.152 0.551453 327.648 0.551453 314.892V293.936C0.551453 284.42 1.56382 276.827 3.58857 271.158C5.81578 265.286 10.0677 257.795 16.3444 248.683L172.452 23.9369C179.134 14.2182 185.006 7.84023 190.067 4.80312C195.332 1.766 202.317 0.247444 211.023 0.247444H248.38C259.314 0.247444 266.906 2.47466 271.158 6.9291C275.613 11.1811 277.84 19.28 277.84 31.226V274.803H296.67C301.529 274.803 305.174 275.511 307.604 276.929C312.868 280.168 318.335 284.116 324.004 288.773C329.673 293.228 335.646 298.695 341.923 305.174C343.948 307.401 344.96 309.223 344.96 310.641C344.96 312.26 343.948 314.083 341.923 316.107C335.646 322.586 329.673 328.053 324.004 332.508C318.335 336.962 312.868 340.91 307.604 344.352C304.769 345.77 301.125 346.478 296.67 346.478H277.84V419.673ZM86.5018 274.803H190.371V122.643L86.5018 274.803Z" fill="black"/>
</svg>
