<svg width="290" height="367" viewBox="0 0 290 367" fill="none" xmlns="http://www.w3.org/2000/svg">
<path d="M233.483 353.436C233.483 358.554 232.46 362.137 230.414 364.185C228.539 366.062 225.3 367 220.697 367H172.619C168.016 367 164.691 366.062 162.645 364.185C160.77 362.137 159.832 358.554 159.832 353.436V291.757H26.3404C16.1111 291.757 9.1211 290.051 5.37037 286.639C1.79012 283.056 0 275.89 0 265.141V247.482C0 239.463 0.85244 233.065 2.55732 228.287C4.43269 223.339 8.01293 217.026 13.2981 209.349L144.744 19.9623C150.37 11.7727 155.315 6.39819 159.577 3.83891C164.009 1.27964 169.891 0 177.222 0H208.677C217.884 0 224.277 1.8768 227.857 5.6304C231.608 9.21339 233.483 16.0381 233.483 26.1046V231.358H249.339C253.43 231.358 256.499 231.956 258.545 233.15C262.978 235.88 267.581 239.207 272.354 243.131C277.128 246.885 282.158 251.491 287.443 256.951C289.148 258.828 290 260.364 290 261.558C290 262.923 289.148 264.458 287.443 266.165C282.158 271.624 277.128 276.231 272.354 279.985C267.581 283.738 262.978 287.065 258.545 289.966C256.158 291.16 253.089 291.757 249.339 291.757H233.483V353.436ZM72.3721 231.358H159.832V103.139L72.3721 231.358Z" fill="black"/>
</svg>
