<svg width="283" height="444" viewBox="0 0 283 444" fill="none" xmlns="http://www.w3.org/2000/svg">
<path d="M106.105 443.362C78.1636 443.362 56.3976 441.338 40.8071 437.288C25.2166 433.441 13.878 429.898 6.79143 426.658C1.32463 423.824 -0.396406 419.268 1.62834 412.991L18.0288 360.449C19.851 354.375 22.2807 350.933 25.3178 350.123C28.5574 349.313 32.9106 350.326 38.3774 353.16C44.8566 356.4 53.4618 359.538 64.1929 362.575C75.1265 365.41 88.3886 366.827 103.979 366.827C129.288 366.827 149.03 360.955 163.203 349.212C177.578 337.266 184.766 321.777 184.766 302.744C184.766 259.617 154.294 238.054 93.3492 238.054C74.924 238.054 54.2716 239.268 31.3921 241.698C25.5203 242.103 21.4708 241.496 19.2436 239.876C17.0164 238.054 16.1052 234.004 16.5102 227.727L29.8735 30.6186C31.2908 10.3712 42.022 0.247444 62.0669 0.247444H229.108C233.968 0.247444 237.612 1.05734 240.042 2.67714C245.306 6.32167 250.773 10.6749 256.442 15.7367C262.111 20.7986 268.084 26.8728 274.361 33.9594C276.386 36.5916 277.398 38.6163 277.398 40.0336C277.398 41.8559 276.386 43.8807 274.361 46.1079C268.084 53.1945 262.111 59.2687 256.442 64.3306C250.773 69.3924 245.306 73.7456 240.042 77.3902C237.207 79.0099 233.563 79.8198 229.108 79.8198H127.669C119.165 79.8198 113.192 81.6421 109.75 85.2867C106.308 88.9312 104.283 94.7017 103.675 102.598L99.1197 165.77C114.71 164.555 128.175 163.948 139.513 163.948C182.64 163.948 217.263 175.286 243.383 197.964C269.502 220.641 282.561 252.632 282.561 293.936C282.561 340.303 266.87 376.85 235.486 403.576C204.305 430.1 161.178 443.362 106.105 443.362Z" fill="black"/>
</svg>
