<svg width="7" height="15" viewBox="0 0 7 15" fill="none" xmlns="http://www.w3.org/2000/svg">
<path id="5" d="M3.324 12.144C2.74 12.144 2.16 12.068 1.584 11.916C1.016 11.756 0.528 11.532 0.12 11.244L0.888 9.756C1.208 9.988 1.576 10.172 1.992 10.308C2.416 10.444 2.844 10.512 3.276 10.512C3.764 10.512 4.148 10.416 4.428 10.224C4.708 10.032 4.848 9.764 4.848 9.42C4.848 9.204 4.792 9.012 4.68 8.844C4.568 8.676 4.368 8.548 4.08 8.46C3.8 8.372 3.404 8.328 2.892 8.328H0.744L1.176 3.6H6.3V5.16H1.872L2.88 4.272L2.58 7.644L1.572 6.756H3.348C4.18 6.756 4.848 6.872 5.352 7.104C5.864 7.328 6.236 7.636 6.468 8.028C6.7 8.42 6.816 8.864 6.816 9.36C6.816 9.856 6.692 10.316 6.444 10.74C6.196 11.156 5.812 11.496 5.292 11.76C4.78 12.016 4.124 12.144 3.324 12.144Z" fill="white"/>
</svg>
