<svg width="237" height="373" viewBox="0 0 237 373" fill="none" xmlns="http://www.w3.org/2000/svg">
<path d="M88.5721 373C65.0688 373 46.7602 371.296 33.6461 367.887C20.5319 364.649 10.9944 361.666 5.03345 358.939C0.434989 356.553 -1.01267 352.718 0.690459 347.435L14.4858 303.206C16.0186 298.093 18.0624 295.196 20.6171 294.514C23.3421 293.832 27.0038 294.684 31.6023 297.071C37.0523 299.798 44.2906 302.439 53.3172 304.996C62.5141 307.382 73.6697 308.575 86.7838 308.575C108.073 308.575 124.678 303.632 136.6 293.747C148.693 283.691 154.739 270.653 154.739 254.632C154.739 218.329 129.107 200.178 77.8423 200.178C62.3438 200.178 44.9719 201.2 25.7265 203.245C20.7874 203.586 17.3812 203.075 15.5077 201.711C13.6343 200.178 12.8679 196.769 13.2085 191.485L24.4491 25.5655C25.6413 8.52182 34.6679 0 51.5289 0H192.037C196.125 0 199.19 0.681745 201.234 2.04524C205.662 5.11309 210.261 8.77747 215.03 13.0384C219.798 17.2993 224.823 22.4124 230.102 28.3777C231.805 30.5933 232.657 32.2977 232.657 33.4907C232.657 35.0247 231.805 36.729 230.102 38.6038C224.823 44.5691 219.798 49.6822 215.03 53.9431C210.261 58.204 205.662 61.8684 201.234 64.9363C198.85 66.2997 195.784 66.9815 192.037 66.9815H106.71C99.5573 66.9815 94.533 68.5154 91.6377 71.5833C88.7424 74.6511 87.0392 79.5086 86.5283 86.1556L82.6963 139.332C95.8104 138.309 107.136 137.798 116.674 137.798C152.95 137.798 182.074 147.342 204.044 166.431C226.015 185.52 237 212.449 237 247.218C237 286.248 223.801 317.012 197.402 339.509C171.174 361.836 134.897 373 88.5721 373Z" fill="black"/>
</svg>
