<svg width="7" height="15" viewBox="0 0 7 15" fill="none" xmlns="http://www.w3.org/2000/svg">
<path id="6" d="M4.224 12.144C3.456 12.144 2.788 11.984 2.22 11.664C1.66 11.344 1.228 10.876 0.924 10.26C0.62 9.644 0.468 8.884 0.468 7.98C0.468 7.012 0.648 6.192 1.008 5.52C1.376 4.848 1.88 4.336 2.52 3.984C3.168 3.632 3.912 3.456 4.752 3.456C5.2 3.456 5.628 3.504 6.036 3.6C6.444 3.696 6.796 3.84 7.092 4.032L6.372 5.46C6.14 5.3 5.892 5.192 5.628 5.136C5.364 5.072 5.088 5.04 4.8 5.04C4.072 5.04 3.496 5.26 3.072 5.7C2.648 6.14 2.436 6.792 2.436 7.656C2.436 7.8 2.436 7.96 2.436 8.136C2.444 8.312 2.468 8.488 2.508 8.664L1.968 8.16C2.12 7.848 2.316 7.588 2.556 7.38C2.796 7.164 3.08 7.004 3.408 6.9C3.744 6.788 4.112 6.732 4.512 6.732C5.056 6.732 5.544 6.84 5.976 7.056C6.408 7.272 6.752 7.576 7.008 7.968C7.272 8.36 7.404 8.82 7.404 9.348C7.404 9.916 7.26 10.412 6.972 10.836C6.692 11.252 6.312 11.576 5.832 11.808C5.36 12.032 4.824 12.144 4.224 12.144ZM4.116 10.692C4.388 10.692 4.628 10.644 4.836 10.548C5.052 10.444 5.22 10.296 5.34 10.104C5.46 9.912 5.52 9.692 5.52 9.444C5.52 9.06 5.388 8.756 5.124 8.532C4.868 8.3 4.524 8.184 4.092 8.184C3.804 8.184 3.552 8.24 3.336 8.352C3.12 8.456 2.948 8.604 2.82 8.796C2.7 8.98 2.64 9.196 2.64 9.444C2.64 9.684 2.7 9.9 2.82 10.092C2.94 10.276 3.108 10.424 3.324 10.536C3.54 10.64 3.804 10.692 4.116 10.692Z" fill="white"/>
</svg>
