<svg width="313" height="452" viewBox="0 0 313 452" fill="none" xmlns="http://www.w3.org/2000/svg">
<path d="M158.271 451.362C125.065 451.362 96.7185 444.782 73.2314 431.621C49.7444 418.46 31.7242 396.289 19.1708 365.108C6.81987 333.927 0.644409 291.408 0.644409 237.55C0.644409 163.646 15.6275 105.739 45.5937 63.8266C75.7624 21.9145 122.939 0.958366 187.123 0.958366C210.408 0.958366 227.719 2.6794 239.058 6.12146C250.396 9.56352 258.09 12.6006 262.14 15.2328C266.189 17.865 269.632 21.5095 272.466 26.1664C274.693 30.0134 277.022 35.0753 279.452 41.352C282.084 47.4262 284.311 53.7029 286.133 60.1821C287.348 64.4341 287.955 68.1798 287.955 71.4194C287.955 75.2664 284.817 78.7085 278.54 81.7456C273.479 84.1753 266.088 86.4025 256.369 88.4273C246.853 90.2495 239.767 91.1607 235.11 91.1607C232.477 91.1607 230.149 91.0594 228.124 90.857C226.302 90.452 224.075 89.4396 221.443 87.8198C218.203 85.7951 213.647 83.5679 207.776 81.1382C201.904 78.7085 193.805 77.4937 183.479 77.4937C156.55 77.4937 135.391 88.6297 120.003 110.902C104.615 132.972 96.9209 161.824 96.9209 197.46H98.7432C109.069 187.741 121.825 179.743 137.011 173.466C152.196 166.987 169.913 163.748 190.16 163.748C228.023 163.748 257.888 174.175 279.755 195.03C301.825 215.682 312.86 250.305 312.86 298.899C312.86 332.308 306.279 360.35 293.119 383.027C280.16 405.502 262.039 422.51 238.754 434.051C215.672 445.592 188.844 451.362 158.271 451.362ZM158.271 374.827C175.683 374.827 189.452 368.955 199.575 357.212C209.902 345.266 215.065 327.853 215.065 304.974C215.065 280.474 210.307 262.656 200.79 251.52C191.274 240.384 176.898 234.816 157.663 234.816C145.515 234.816 135.29 236.841 126.988 240.89C118.687 244.737 112.208 248.989 107.551 253.646C102.894 258.303 99.8568 261.846 98.4395 264.276C98.4395 302.139 103.501 330.08 113.625 348.101C123.951 365.918 138.833 374.827 158.271 374.827Z" fill="black"/>
</svg>
