<svg width="264" height="380" viewBox="0 0 264 380" fill="none" xmlns="http://www.w3.org/2000/svg">
<path d="M133.284 380C105.206 380 81.2374 374.448 61.3774 363.345C41.5175 352.241 26.2802 333.536 15.6654 307.229C5.22179 280.922 0 245.048 0 199.609C0 137.258 12.6693 88.4019 38.0078 53.0411C63.5175 17.6804 103.409 0 157.681 0C177.37 0 192.008 1.45201 201.595 4.35604C211.183 7.26006 217.689 9.82243 221.113 12.0432C224.537 14.2639 227.447 17.3387 229.844 21.2677C231.728 24.5134 233.696 28.784 235.751 34.0796C237.977 39.2043 239.86 44.4999 241.401 49.9663C242.428 53.5536 242.942 56.7139 242.942 59.4471C242.942 62.6927 240.288 65.5968 234.981 68.1591C230.7 70.209 224.451 72.0881 216.233 73.7964C208.187 75.3338 202.195 76.1025 198.257 76.1025C196.031 76.1025 194.062 76.0171 192.35 75.8463C190.809 75.5046 188.926 74.6505 186.7 73.2839C183.961 71.5756 180.109 69.6966 175.144 67.6467C170.179 65.5968 163.331 64.5718 154.599 64.5718C131.829 64.5718 113.938 73.9672 100.926 92.7579C87.9144 111.378 81.4086 135.72 81.4086 165.786H82.9494C91.6809 157.586 102.467 150.838 115.307 145.543C128.148 140.076 143.128 137.343 160.249 137.343C192.265 137.343 217.517 146.141 236.008 163.736C254.669 181.16 264 210.371 264 251.369C264 279.555 258.436 303.214 247.307 322.347C236.35 341.308 221.027 355.657 201.339 365.394C181.821 375.131 159.136 380 133.284 380ZM133.284 315.428C148.008 315.428 159.65 310.474 168.21 300.566C176.942 290.488 181.307 275.797 181.307 256.494C181.307 235.824 177.284 220.791 169.237 211.396C161.191 202 149.035 197.303 132.77 197.303C122.498 197.303 113.852 199.011 106.833 202.428C99.8132 205.673 94.3346 209.261 90.3969 213.189C86.4591 217.118 83.891 220.108 82.6926 222.158C82.6926 254.102 86.9728 277.676 95.5331 292.879C104.265 307.912 116.848 315.428 133.284 315.428Z" fill="black"/>
</svg>
