<svg width="313" height="452" viewBox="0 0 313 452" fill="none" xmlns="http://www.w3.org/2000/svg">
<path fill-rule="evenodd" clip-rule="evenodd" d="M73.2314 431.621C96.7185 444.782 125.065 451.362 158.271 451.362C188.844 451.362 215.672 445.592 238.754 434.051C262.039 422.51 280.16 405.502 293.119 383.027C306.279 360.35 312.86 332.308 312.86 298.899C312.86 250.306 301.825 215.682 279.755 195.03C257.888 174.175 228.023 163.748 190.16 163.748C169.913 163.748 152.196 166.987 137.011 173.467C121.825 179.743 109.069 187.741 98.7432 197.46H98.0068L98.9838 263.407C100.566 261.029 103.422 257.775 107.551 253.646C112.208 248.989 118.687 244.737 126.988 240.89C135.29 236.841 145.515 234.816 157.663 234.816C176.898 234.816 191.274 240.384 200.79 251.52C210.307 262.656 215.065 280.474 215.065 304.974C215.065 327.853 209.902 345.266 199.575 357.212C189.452 368.955 175.683 374.827 158.271 374.827C138.833 374.827 123.951 365.918 113.625 348.101C103.501 330.08 98.4395 302.139 98.4395 264.276C98.4578 264.245 98.4764 264.213 98.4952 264.182L97.5068 197.46H96.9209C96.9209 161.824 104.615 132.972 120.003 110.902C135.391 88.6298 156.55 77.4937 183.479 77.4937C193.805 77.4937 201.904 78.7086 207.776 81.1383C213.647 83.5679 218.203 85.7952 221.443 87.8199C224.075 89.4397 226.302 90.4521 228.124 90.857C230.149 91.0595 232.477 91.1607 235.11 91.1607C239.767 91.1607 246.853 90.2496 256.369 88.4273C266.088 86.4026 273.479 84.1754 278.54 81.7457C284.817 78.7086 287.955 75.2665 287.955 71.4195C287.955 68.1799 287.348 64.4341 286.133 60.1822C284.311 53.703 282.084 47.4263 279.452 41.3521C277.022 35.0754 274.693 30.0135 272.466 26.1665C269.632 21.5096 266.189 17.865 262.14 15.2329C258.09 12.6007 250.396 9.56359 239.058 6.12153C227.719 2.67947 210.408 0.958435 187.123 0.958435C122.939 0.958435 75.7624 21.9145 45.5937 63.8267C15.6275 105.739 0.644409 163.647 0.644409 237.55C0.644409 291.408 6.81987 333.927 19.1708 365.108C31.7242 396.289 49.7444 418.46 73.2314 431.621Z" fill="black"/>
</svg>
