<svg width="317" height="436" viewBox="0 0 317 436" fill="none" xmlns="http://www.w3.org/2000/svg">
<path d="M75.4254 417.243C85.7516 358.931 100.836 302.542 120.678 248.076C140.521 193.61 162.692 145.725 187.191 104.42C192.051 96.3215 193.468 90.2473 191.443 86.1978C189.418 81.9458 182.636 79.8198 171.095 79.8198H49.0025C44.1431 79.8198 40.4986 79.0099 38.0689 77.3901C32.8046 73.7456 27.3378 69.3924 21.6685 64.3306C16.2017 59.2687 10.2287 53.1945 3.74952 46.1079C1.72477 43.4757 0.712402 41.451 0.712402 40.0336C0.712402 38.2114 1.72477 36.1866 3.74952 33.9594C10.2287 26.8728 16.2017 20.7986 21.6685 15.7367C27.3378 10.6749 32.8046 6.32167 38.0689 2.67714C40.9035 1.05734 44.5481 0.247444 49.0025 0.247444H263.119C281.747 0.247444 295.312 3.3858 303.816 9.6625C312.523 15.7367 316.876 24.4431 316.876 35.7817C316.876 44.2856 314.953 52.8908 311.105 61.5971C307.258 70.1011 301.488 81.3384 293.794 95.3091C265.852 145.523 241.556 196.344 220.903 247.772C200.251 298.998 184.964 356.096 175.043 419.065C174.233 424.127 172.512 428.177 169.88 431.214C167.45 434.251 162.692 435.77 155.605 435.77H89.0924C77.7539 435.77 73.1982 429.594 75.4254 417.243Z" fill="black"/>
</svg>
