<svg width="266" height="367" viewBox="0 0 266 367" fill="none" xmlns="http://www.w3.org/2000/svg">
<path d="M62.8588 351.388C71.5466 302.25 84.2376 254.733 100.932 208.837C117.626 162.94 136.279 122.589 156.891 87.7831C160.98 80.9584 162.172 75.8398 160.469 72.4275C158.765 68.8445 153.059 67.053 143.349 67.053H40.6282C36.5399 67.053 33.4736 66.3705 31.4294 65.0056C27.0003 61.9344 22.4009 58.2662 17.6311 54.0007C13.0317 49.7352 8.0064 44.6167 2.55524 38.645C0.851745 36.427 0 34.7208 0 33.5265C0 31.9909 0.851745 30.2848 2.55524 28.4079C8.0064 22.4363 13.0317 17.3178 17.6311 13.0523C22.4009 8.78684 27.0003 5.11855 31.4294 2.04742C33.8143 0.682473 36.8806 0 40.6282 0H220.772C236.444 0 247.858 2.64458 255.012 7.93375C262.337 13.0523 266 20.3889 266 29.9435C266 37.1095 264.382 44.3608 261.145 51.6973C257.908 58.8633 253.053 68.3326 246.58 80.1053C223.072 122.419 202.63 165.244 185.255 208.581C167.879 251.747 155.018 299.862 146.671 352.924C145.989 357.189 144.541 360.602 142.327 363.161C140.282 365.72 136.279 367 130.317 367H74.3573C64.8178 367 60.9849 361.796 62.8588 351.388Z" fill="black"/>
</svg>
