<svg width="323" height="451" viewBox="0 0 323 451" fill="none" xmlns="http://www.w3.org/2000/svg">
<path d="M161.703 450.755C108.858 450.755 68.7677 440.125 41.4337 418.865C14.0996 397.605 0.432617 366.829 0.432617 326.537C0.432617 296.976 8.43035 273.084 24.4258 254.861C40.4213 236.638 60.8712 223.579 85.7755 215.682V214.164C73.4246 209.709 61.9848 203.736 51.4561 196.245C40.9275 188.551 32.4236 178.326 25.9444 165.57C19.4652 152.814 16.2256 136.515 16.2256 116.672C16.2256 83.2642 28.3741 55.6264 52.671 33.7592C77.1704 11.892 113.818 0.958366 162.615 0.958366C211.613 0.958366 248.362 11.892 272.862 33.7592C297.564 55.4239 309.915 82.6567 309.915 115.458C309.915 141.779 303.435 163.14 290.477 179.541C277.519 195.739 259.6 206.571 236.72 212.038V213.556C262.434 219.428 283.188 231.779 298.981 250.609C314.976 269.439 322.974 294.445 322.974 325.626C322.974 362.679 309.307 392.847 281.973 416.132C254.639 439.214 214.549 450.755 161.703 450.755ZM163.222 180.756C177.598 180.756 189.341 175.795 198.452 165.874C207.564 155.75 212.119 142.994 212.119 127.606C212.119 111.813 207.665 99.0572 198.756 89.3384C189.847 79.4171 178.003 74.4565 163.222 74.4565C147.834 74.4565 135.787 79.5184 127.08 89.6421C118.374 99.5633 114.021 112.218 114.021 127.606C114.021 142.994 118.678 155.75 127.991 165.874C137.305 175.795 149.049 180.756 163.222 180.756ZM162.007 377.257C180.635 377.257 195.82 371.183 207.564 359.034C219.307 346.886 225.179 332.308 225.179 315.3C225.179 297.684 219.409 283.106 207.868 271.565C196.529 259.822 181.242 253.95 162.007 253.95C143.582 253.95 128.295 259.518 116.147 270.654C104.201 281.588 98.2277 296.47 98.2277 315.3C98.2277 332.712 103.998 347.392 115.539 359.338C127.283 371.284 142.772 377.257 162.007 377.257Z" fill="black"/>
</svg>
