<svg width="7" height="15" viewBox="0 0 7 15" fill="none" xmlns="http://www.w3.org/2000/svg">
<path id="8" d="M3.948 12.144C3.244 12.144 2.628 12.04 2.1 11.832C1.572 11.616 1.16 11.316 0.864 10.932C0.568 10.54 0.42 10.084 0.42 9.564C0.42 9.044 0.564 8.604 0.852 8.244C1.148 7.876 1.56 7.6 2.088 7.416C2.616 7.224 3.236 7.128 3.948 7.128C4.668 7.128 5.292 7.224 5.82 7.416C6.356 7.6 6.768 7.876 7.056 8.244C7.352 8.604 7.5 9.044 7.5 9.564C7.5 10.084 7.352 10.54 7.056 10.932C6.76 11.316 6.344 11.616 5.808 11.832C5.28 12.04 4.66 12.144 3.948 12.144ZM3.948 10.716C4.436 10.716 4.82 10.608 5.1 10.392C5.388 10.176 5.532 9.88 5.532 9.504C5.532 9.128 5.388 8.836 5.1 8.628C4.82 8.412 4.436 8.304 3.948 8.304C3.468 8.304 3.088 8.412 2.808 8.628C2.528 8.836 2.388 9.128 2.388 9.504C2.388 9.88 2.528 10.176 2.808 10.392C3.088 10.608 3.468 10.716 3.948 10.716ZM3.948 8.112C3.3 8.112 2.732 8.024 2.244 7.848C1.764 7.672 1.388 7.416 1.116 7.08C0.852 6.736 0.72 6.328 0.72 5.856C0.72 5.36 0.856 4.936 1.128 4.584C1.4 4.224 1.78 3.948 2.268 3.756C2.756 3.556 3.316 3.456 3.948 3.456C4.596 3.456 5.16 3.556 5.64 3.756C6.128 3.948 6.508 4.224 6.78 4.584C7.06 4.936 7.2 5.36 7.2 5.856C7.2 6.328 7.064 6.736 6.792 7.08C6.528 7.416 6.152 7.672 5.664 7.848C5.176 8.024 4.604 8.112 3.948 8.112ZM3.948 6.972C4.356 6.972 4.676 6.88 4.908 6.696C5.148 6.512 5.268 6.26 5.268 5.94C5.268 5.604 5.144 5.344 4.896 5.16C4.656 4.976 4.34 4.884 3.948 4.884C3.564 4.884 3.252 4.976 3.012 5.16C2.772 5.344 2.652 5.604 2.652 5.94C2.652 6.26 2.768 6.512 3 6.696C3.232 6.88 3.548 6.972 3.948 6.972Z" fill="white"/>
</svg>
