<svg width="272" height="379" viewBox="0 0 272 379" fill="none" xmlns="http://www.w3.org/2000/svg">
<path d="M136 379C91.435 379 57.6271 370.043 34.5763 352.13C11.5254 334.216 0 308.284 0 274.334C0 249.425 6.74451 229.294 20.2335 213.939C33.7225 198.585 50.968 187.581 71.9699 180.927V179.648C61.5543 175.894 51.9071 170.861 43.0282 164.549C34.1494 158.066 26.978 149.45 21.5141 138.702C16.0502 127.954 13.3183 114.22 13.3183 97.501C13.3183 69.3511 23.5631 46.0635 44.0527 27.6381C64.7131 9.21269 95.6183 0 136.768 0C178.089 0 209.08 9.21269 229.74 27.6381C250.571 45.8929 260.987 68.8393 260.987 96.4774C260.987 118.656 255.523 136.655 244.595 150.474C233.667 164.122 218.556 173.25 199.262 177.856V179.136C220.947 184.083 238.448 194.49 251.766 210.357C265.255 226.223 272 247.293 272 273.566C272 304.787 260.475 330.207 237.424 349.826C214.373 369.275 180.565 379 136 379ZM137.281 151.498C149.404 151.498 159.307 147.318 166.991 138.958C174.674 130.428 178.516 119.68 178.516 106.714C178.516 93.4065 174.76 82.6583 167.247 74.4693C159.734 66.1096 149.745 61.9298 137.281 61.9298C124.304 61.9298 114.144 66.1949 106.802 74.7252C99.4601 83.0849 95.7891 93.7477 95.7891 106.714C95.7891 119.68 99.7163 130.428 107.571 138.958C115.425 147.318 125.328 151.498 137.281 151.498ZM136.256 317.07C151.965 317.07 164.771 311.952 174.674 301.716C184.578 291.479 189.529 279.196 189.529 264.865C189.529 250.022 184.663 237.739 174.93 228.014C165.368 218.119 152.477 213.171 136.256 213.171C120.718 213.171 107.827 217.863 97.5819 227.246C87.5078 236.459 82.4708 248.999 82.4708 264.865C82.4708 279.537 87.3371 291.906 97.0697 301.972C106.973 312.037 120.035 317.07 136.256 317.07Z" fill="black"/>
</svg>
