<svg width="313" height="452" viewBox="0 0 313 452" fill="none" xmlns="http://www.w3.org/2000/svg">
<path opacity="0.9" d="M155.269 0.958366C188.474 0.958366 216.821 7.53878 240.308 20.6996C263.795 33.8604 281.714 55.9301 294.065 86.9087C306.618 117.685 312.895 159.799 312.895 213.253C312.895 287.763 297.81 346.076 267.642 388.19C237.676 430.305 190.6 451.362 126.416 451.362C101.309 451.362 82.884 449.641 71.1405 446.199C59.397 442.757 51.5005 439.72 47.451 437.088C43.4015 434.456 39.9595 430.811 37.1248 426.154C34.8976 422.105 32.4679 417.043 29.8357 410.969C27.4061 404.895 25.2801 398.618 23.4578 392.139C22.243 387.887 21.6355 383.837 21.6355 379.99C21.6355 376.751 24.7739 373.612 31.0506 370.575C36.3149 368.145 43.3003 366.019 52.0067 364.197C60.9155 362.173 67.6984 361.16 72.3553 361.16C75.19 361.16 77.5184 361.363 79.3407 361.768C81.163 361.97 83.3902 362.881 86.0224 364.501C89.2619 366.526 94.1213 368.753 100.601 371.183C107.282 373.612 115.887 374.827 126.416 374.827C156.787 374.827 179.363 363.691 194.144 341.419C209.127 319.147 216.618 290.294 216.618 254.861H214.796C204.47 264.58 191.714 272.679 176.528 279.158C161.343 285.435 143.626 288.573 123.379 288.573C98.2721 288.573 76.5061 284.321 58.0809 275.817C39.6557 267.111 25.4825 252.938 15.5613 233.298C5.64006 213.455 0.679443 186.83 0.679443 153.422C0.679443 120.013 7.15862 91.9706 20.117 69.2934C33.2778 46.6163 51.5005 29.6085 74.785 18.2699C98.0696 6.72888 124.897 0.958366 155.269 0.958366ZM155.269 77.4936C137.856 77.4936 123.986 83.4666 113.66 95.4126C103.536 107.156 98.4745 124.468 98.4745 147.347C98.4745 171.847 103.233 189.664 112.749 200.8C122.468 211.937 136.843 217.505 155.876 217.505C168.024 217.505 178.249 215.581 186.551 211.734C194.852 207.685 201.331 203.331 205.988 198.675C210.848 194.018 213.885 190.474 215.1 188.045C215.1 149.979 209.937 122.038 199.61 104.22C189.487 86.4025 174.706 77.4936 155.269 77.4936Z" fill="black"/>
</svg>
