<svg width="7" height="15" viewBox="0 0 7 15" fill="none" xmlns="http://www.w3.org/2000/svg">
<path id="9" d="M3.42 3.456C4.196 3.456 4.864 3.616 5.424 3.936C5.984 4.256 6.416 4.724 6.72 5.34C7.024 5.948 7.176 6.708 7.176 7.62C7.176 8.588 6.992 9.408 6.624 10.08C6.264 10.752 5.764 11.264 5.124 11.616C4.484 11.968 3.74 12.144 2.892 12.144C2.452 12.144 2.028 12.096 1.62 12C1.212 11.904 0.86 11.76 0.564 11.568L1.284 10.14C1.516 10.3 1.764 10.412 2.028 10.476C2.292 10.532 2.568 10.56 2.856 10.56C3.576 10.56 4.148 10.34 4.572 9.9C5.004 9.46 5.22 8.808 5.22 7.944C5.22 7.8 5.216 7.64 5.208 7.464C5.2 7.288 5.18 7.112 5.148 6.936L5.676 7.44C5.54 7.752 5.348 8.016 5.1 8.232C4.852 8.44 4.564 8.6 4.236 8.712C3.908 8.816 3.54 8.868 3.132 8.868C2.596 8.868 2.108 8.76 1.668 8.544C1.236 8.328 0.888 8.024 0.624 7.632C0.368 7.24 0.24 6.78 0.24 6.252C0.24 5.676 0.38 5.18 0.66 4.764C0.948 4.348 1.332 4.028 1.812 3.804C2.3 3.572 2.836 3.456 3.42 3.456ZM3.54 4.908C3.26 4.908 3.016 4.96 2.808 5.064C2.6 5.16 2.436 5.304 2.316 5.496C2.196 5.68 2.136 5.9 2.136 6.156C2.136 6.54 2.264 6.848 2.52 7.08C2.784 7.304 3.132 7.416 3.564 7.416C3.844 7.416 4.092 7.364 4.308 7.26C4.532 7.148 4.704 6.996 4.824 6.804C4.944 6.612 5.004 6.396 5.004 6.156C5.004 5.916 4.944 5.704 4.824 5.52C4.712 5.328 4.548 5.18 4.332 5.076C4.116 4.964 3.852 4.908 3.54 4.908Z" fill="white"/>
</svg>
