<svg width="313" height="452" viewBox="0 0 313 452" fill="none" xmlns="http://www.w3.org/2000/svg">
<path opacity="0.9" fill-rule="evenodd" clip-rule="evenodd" d="M240.308 20.6996C216.821 7.53878 188.474 0.958366 155.269 0.958366C124.897 0.958366 98.0696 6.72888 74.785 18.2699C51.5005 29.6085 33.2778 46.6163 20.117 69.2934C7.15862 91.9706 0.679443 120.013 0.679443 153.422C0.679443 186.83 5.64006 213.455 15.5613 233.298C25.4825 252.938 39.6557 267.111 58.0809 275.817C76.5061 284.321 98.2721 288.573 123.379 288.573C143.626 288.573 161.343 285.435 176.528 279.158C191.714 272.679 204.47 264.58 214.796 254.861H214.998L214.288 189.432C212.758 191.757 209.992 194.838 205.988 198.675C201.331 203.331 194.852 207.685 186.551 211.734C178.249 215.581 168.024 217.505 155.876 217.505C136.843 217.505 122.468 211.937 112.749 200.8C103.233 189.664 98.4745 171.847 98.4745 147.347C98.4745 124.468 103.536 107.156 113.66 95.4126C123.986 83.4666 137.856 77.4936 155.269 77.4936C174.706 77.4936 189.487 86.4025 199.61 104.22C209.937 122.038 215.1 149.979 215.1 188.045C215.004 188.236 214.897 188.434 214.779 188.639L215.498 254.861H216.618C216.618 290.294 209.127 319.147 194.144 341.419C179.363 363.691 156.787 374.827 126.416 374.827C115.887 374.827 107.282 373.612 100.601 371.183C94.1213 368.753 89.2619 366.526 86.0224 364.501C83.3902 362.881 81.163 361.97 79.3407 361.768C77.5184 361.363 75.19 361.16 72.3553 361.16C67.6984 361.16 60.9155 362.173 52.0067 364.197C43.3003 366.019 36.3149 368.145 31.0506 370.575C24.7739 373.612 21.6355 376.751 21.6355 379.99C21.6355 383.837 22.243 387.887 23.4578 392.139C25.2801 398.618 27.4061 404.895 29.8357 410.969C32.4679 417.043 34.8976 422.105 37.1248 426.154C39.9595 430.811 43.4015 434.456 47.451 437.088C51.5005 439.72 59.397 442.757 71.1405 446.199C82.884 449.641 101.309 451.362 126.416 451.362C190.6 451.362 237.676 430.305 267.642 388.19C297.81 346.076 312.895 287.763 312.895 213.253C312.895 159.799 306.618 117.685 294.065 86.9087C281.714 55.9301 263.795 33.8604 240.308 20.6996Z" fill="black"/>
</svg>
