<svg width="263" height="380" viewBox="0 0 263 380" fill="none" xmlns="http://www.w3.org/2000/svg">
<path d="M130.221 0C158.192 0 182.07 5.55181 201.855 16.6554C221.64 27.759 236.734 46.379 247.138 72.5152C257.713 98.4806 263 134.012 263 179.11C263 241.973 250.293 291.171 224.88 326.703C199.638 362.234 159.983 380 105.916 380C84.7672 380 69.2464 378.548 59.3541 375.644C49.4617 372.74 42.81 370.178 39.3988 367.957C35.9877 365.736 33.0882 362.661 30.7004 358.732C28.8243 355.316 26.7776 351.045 24.5603 345.92C22.5136 340.796 20.7228 335.5 19.1877 330.034C18.1644 326.446 17.6527 323.03 17.6527 319.784C17.6527 317.051 20.2964 314.403 25.5837 311.841C30.0182 309.791 35.9024 307.997 43.2364 306.46C50.7409 304.752 56.4546 303.898 60.3774 303.898C62.7652 303.898 64.7267 304.068 66.2617 304.41C67.7967 304.581 69.6728 305.35 71.8901 306.716C74.619 308.424 78.7124 310.303 84.1702 312.353C89.7986 314.403 97.0473 315.428 105.916 315.428C131.5 315.428 150.517 306.033 162.968 287.242C175.589 268.451 181.9 244.109 181.9 214.214H180.365C171.666 222.414 160.921 229.247 148.129 234.713C135.338 240.009 120.414 242.657 103.358 242.657C82.2088 242.657 63.8739 239.069 48.3531 231.895C32.8324 224.549 20.8933 212.592 12.536 196.022C4.17866 179.281 0 156.817 0 128.631C0 100.445 5.45785 76.7858 16.3735 57.6534C27.4598 38.521 42.81 24.1717 62.4241 14.6055C82.0383 4.86851 104.637 0 130.221 0ZM130.221 64.5718C115.553 64.5718 103.87 69.6111 95.1712 79.6898C86.6433 89.5977 82.3794 104.203 82.3794 123.506C82.3794 144.176 86.3875 159.209 94.4037 168.604C102.59 178 114.7 182.697 130.732 182.697C140.966 182.697 149.579 181.074 156.572 177.829C163.565 174.412 169.023 170.739 172.946 166.811C177.039 162.882 179.597 159.892 180.621 157.842C180.621 125.727 176.271 102.153 167.573 87.1207C159.045 72.0881 146.594 64.5718 130.221 64.5718Z" fill="black"/>
</svg>
