<svg width="137" height="325" viewBox="0 0 137 325" fill="none" xmlns="http://www.w3.org/2000/svg">
<path d="M0.747314 256.649C0.747314 253.815 1.65845 251.385 3.48072 249.36C5.30299 247.133 7.63144 244.197 10.4661 240.553C16.7428 233.466 23.9306 226.076 32.0296 218.382C40.331 210.485 48.6325 202.892 56.9339 195.603C62.1983 191.351 66.1465 189.225 68.7787 189.225C71.2084 189.225 75.2578 191.351 80.9271 195.603C98.5424 210.586 113.829 225.57 126.788 240.553C129.622 243.995 131.951 246.829 133.773 249.057C135.595 251.284 136.506 253.815 136.506 256.649C136.506 259.484 135.494 262.015 133.469 264.242C131.647 266.469 129.318 269.507 126.484 273.354C120.41 280.238 113.323 287.527 105.224 295.221C97.3275 302.915 89.2286 310.406 80.9271 317.695C75.6628 321.947 71.6133 324.073 68.7787 324.073C66.349 324.073 62.1983 321.947 56.3265 317.695C47.4176 310.406 39.1162 302.915 31.4222 295.221C23.7281 287.324 16.7428 279.731 10.4661 272.442C7.63144 269 5.30299 266.267 3.48072 264.242C1.65845 262.015 0.747314 259.484 0.747314 256.649ZM0.747314 67.4372C0.747314 64.6025 1.65845 62.1729 3.48072 60.1481C5.30299 57.9209 7.63144 54.985 10.4661 51.3405C16.7428 44.2539 23.9306 36.8636 32.0296 29.1695C40.331 21.2731 48.6325 13.6803 56.9339 6.39119C62.1983 2.13923 66.1465 0.0132523 68.7787 0.0132523C71.2084 0.0132523 75.2578 2.13923 80.9271 6.39119C98.5424 21.3743 113.829 36.3574 126.788 51.3405C129.622 54.7825 131.951 57.6172 133.773 59.8444C135.595 62.0716 136.506 64.6025 136.506 67.4372C136.506 70.2718 135.494 72.8028 133.469 75.03C131.647 77.2572 129.318 80.2943 126.484 84.1413C120.41 91.0254 113.323 98.3145 105.224 106.009C97.3275 113.703 89.2286 121.194 80.9271 128.483C75.6628 132.735 71.6133 134.861 68.7787 134.861C66.349 134.861 62.1983 132.735 56.3265 128.483C47.4176 121.194 39.1162 113.703 31.4222 106.009C23.7281 98.112 16.7428 90.5193 10.4661 83.2302C7.63144 79.7881 5.30299 77.0547 3.48072 75.03C1.65845 72.8028 0.747314 70.2718 0.747314 67.4372Z" fill="black"/>
</svg>
