<svg width="136" height="136" viewBox="0 0 136 136" fill="none" xmlns="http://www.w3.org/2000/svg">
<path d="M0.202148 67.7979C0.202148 64.9632 1.11328 62.5335 2.93555 60.5088C4.75782 58.2816 7.08627 55.3457 9.92091 51.7012C16.1976 44.6146 23.3855 37.2243 31.4844 29.5302C39.7859 21.6337 48.0873 14.0409 56.3888 6.75187C61.6531 2.49991 65.6013 0.373932 68.2335 0.373932C70.6632 0.373932 74.7127 2.49991 80.382 6.75187C97.9972 21.735 113.284 36.7181 126.242 51.7012C129.077 55.1432 131.405 57.9779 133.228 60.2051C135.05 62.4323 135.961 64.9632 135.961 67.7979C135.961 70.6325 134.949 73.1634 132.924 75.3906C131.102 77.6179 128.773 80.655 125.939 84.502C119.864 91.3861 112.778 98.6752 104.679 106.369C96.7824 114.063 88.6834 121.555 80.382 128.844C75.1176 133.096 71.0681 135.222 68.2335 135.222C65.8038 135.222 61.6531 133.096 55.7813 128.844C46.8725 121.555 38.571 114.063 30.877 106.369C23.183 98.4727 16.1976 90.8799 9.92091 83.5909C7.08627 80.1488 4.75782 77.4154 2.93555 75.3906C1.11328 73.1634 0.202148 70.6325 0.202148 67.7979Z" fill="black"/>
</svg>
