<svg width="323" height="451" viewBox="0 0 323 451" fill="none" xmlns="http://www.w3.org/2000/svg">
<path fill-rule="evenodd" clip-rule="evenodd" d="M41.4337 418.865C68.7677 440.125 108.858 450.755 161.703 450.755C214.549 450.755 254.639 439.214 281.973 416.132C309.307 392.847 322.974 362.679 322.974 325.626C322.974 294.445 314.976 269.439 298.981 250.609C283.188 231.779 262.434 219.428 236.72 213.556V212.038C259.6 206.571 277.519 195.739 290.477 179.541C303.435 163.14 309.915 141.779 309.915 115.458C309.915 82.6567 297.564 55.424 272.862 33.7592C248.362 11.892 211.613 0.958366 162.615 0.958366C113.818 0.958366 77.1704 11.892 52.671 33.7592C28.3741 55.6264 16.2256 83.2642 16.2256 116.672C16.2256 136.515 19.4652 152.814 25.9444 165.57C32.4236 178.326 40.9275 188.551 51.4561 196.245C61.9848 203.736 73.4246 209.709 85.7755 214.164V215.682C60.8712 223.579 40.4213 236.638 24.4258 254.861C8.43035 273.084 0.432617 296.976 0.432617 326.537C0.432617 366.829 14.0996 397.605 41.4337 418.865ZM168 180.565C180.221 179.57 190.372 174.672 198.452 165.874C207.564 155.75 212.119 142.994 212.119 127.606C212.119 111.813 207.665 99.0572 198.756 89.3384C189.847 79.4172 178.003 74.4565 163.222 74.4565C147.834 74.4565 135.787 79.5184 127.08 89.6421C118.374 99.5633 114.021 112.218 114.021 127.606C114.021 142.994 118.678 155.75 127.991 165.874C135.674 174.058 145.011 178.866 156 180.299V254.155C140.234 255.252 126.949 260.752 116.147 270.654C104.201 281.588 98.2277 296.47 98.2277 315.3C98.2277 332.712 103.998 347.392 115.539 359.338C127.283 371.284 142.772 377.257 162.007 377.257C180.635 377.257 195.82 371.183 207.564 359.034C219.307 346.886 225.179 332.308 225.179 315.3C225.179 297.684 219.409 283.106 207.868 271.565C197.733 261.069 184.444 255.263 168 254.149V180.565Z" fill="black"/>
</svg>
